<svg width="78" height="83" viewBox="0 0 78 83" fill="none" xmlns="http://www.w3.org/2000/svg">
<path d="M48 53C56.2875 53 63 46.2875 63 38C63 29.7125 56.2875 23 48 23C39.7125 23 33 29.7125 33 38C33 46.2875 39.7125 53 48 53ZM48 60.5C37.9875 60.5 18 65.525 18 75.5V83H78V75.5C78 65.525 58.0125 60.5 48 60.5Z" fill="white"/>
<path d="M16.5 0C7.38833 0 0 7.38833 0 16.5C0 25.6117 7.38833 33 16.5 33C18.0217 33 19.25 31.7717 19.25 30.25C19.25 29.535 18.975 28.8933 18.535 28.3983C18.1133 27.9217 17.8383 27.28 17.8383 26.5833C17.8383 25.0617 19.0667 23.8333 20.5883 23.8333H23.8333C28.8933 23.8333 33 19.7267 33 14.6667C33 6.56333 25.6117 0 16.5 0ZM6.41667 16.5C4.895 16.5 3.66667 15.2717 3.66667 13.75C3.66667 12.2283 4.895 11 6.41667 11C7.93833 11 9.16667 12.2283 9.16667 13.75C9.16667 15.2717 7.93833 16.5 6.41667 16.5ZM11.9167 9.16667C10.395 9.16667 9.16667 7.93833 9.16667 6.41667C9.16667 4.895 10.395 3.66667 11.9167 3.66667C13.4383 3.66667 14.6667 4.895 14.6667 6.41667C14.6667 7.93833 13.4383 9.16667 11.9167 9.16667ZM21.0833 9.16667C19.5617 9.16667 18.3333 7.93833 18.3333 6.41667C18.3333 4.895 19.5617 3.66667 21.0833 3.66667C22.605 3.66667 23.8333 4.895 23.8333 6.41667C23.8333 7.93833 22.605 9.16667 21.0833 9.16667ZM26.5833 16.5C25.0617 16.5 23.8333 15.2717 23.8333 13.75C23.8333 12.2283 25.0617 11 26.5833 11C28.105 11 29.3333 12.2283 29.3333 13.75C29.3333 15.2717 28.105 16.5 26.5833 16.5Z" fill="white"/>
</svg>
