<svg width="88" height="88" viewBox="0 0 88 88" fill="none" xmlns="http://www.w3.org/2000/svg">
<path d="M44 0C19.712 0 0 19.712 0 44C0 68.288 19.712 88 44 88C68.288 88 88 68.288 88 44C88 19.712 68.288 0 44 0ZM59.884 27.896C64.592 27.896 68.376 31.68 68.376 36.388C68.376 41.096 64.592 44.88 59.884 44.88C55.176 44.88 51.392 41.096 51.392 36.388C51.348 31.68 55.176 27.896 59.884 27.896ZM33.484 20.944C39.204 20.944 43.868 25.608 43.868 31.328C43.868 37.048 39.204 41.712 33.484 41.712C27.764 41.712 23.1 37.048 23.1 31.328C23.1 25.564 27.72 20.944 33.484 20.944ZM33.484 61.116V77.616C22.924 74.316 14.564 66.176 10.868 55.792C15.488 50.864 27.016 48.356 33.484 48.356C35.816 48.356 38.764 48.708 41.844 49.324C34.628 53.152 33.484 58.212 33.484 61.116ZM44 79.2C42.812 79.2 41.668 79.156 40.524 79.024V61.116C40.524 54.868 53.46 51.744 59.884 51.744C64.592 51.744 72.732 53.46 76.78 56.804C71.632 69.872 58.916 79.2 44 79.2Z" fill="white"/>
</svg>
